<svg width="481" height="421" viewBox="0 0 481 421" fill="none" xmlns="http://www.w3.org/2000/svg">
<g clip-path="url(#clip0_857_113)">
<path d="M414.997 318.818C485.335 248.512 485.335 134.523 414.997 64.2171C344.659 -6.08901 230.619 -6.08905 160.281 64.2171C89.9433 134.523 89.9433 248.512 160.281 318.818C230.619 389.124 344.659 389.124 414.997 318.818Z" fill="#C6E2F4"/>
<path d="M192.294 381.804C192.294 381.804 191.323 299.433 246.976 250.028C272.221 227.617 330.576 256.51 274.578 294.541C251.434 310.258 216.164 324.249 192.294 381.804Z" fill="#3285FF"/>
<path d="M266.903 265.648C266.903 265.648 186.678 318.397 191.087 412.1" stroke="#3081F8" stroke-width="14.2801" stroke-miterlimit="10"/>
<path opacity="0.1" d="M284.507 419.091C318.882 419.091 346.749 415.208 346.749 410.418C346.749 405.627 318.882 401.744 284.507 401.744C250.132 401.744 222.265 405.627 222.265 410.418C222.265 415.208 250.132 419.091 284.507 419.091Z" fill="black"/>
<path d="M173.741 378.948C173.741 378.948 170.899 288.599 56.6298 243.956C17.2432 228.567 -40.157 284.699 41.4349 307.765C75.1583 317.296 122.607 319.984 173.741 378.948Z" fill="#2D76E3"/>
<path d="M39.1292 270.396C39.1292 270.396 155.334 301.377 187.162 414.477" stroke="#296ED3" stroke-width="17.8852" stroke-miterlimit="10"/>
<path d="M91.5617 190.827C98.972 195.77 101.249 205.367 101.249 205.367C101.249 205.367 91.5088 206.947 84.0985 202.004C76.6882 197.06 72.3504 190.549 74.4116 187.464C76.4709 184.378 84.1496 185.883 91.5617 190.827Z" fill="#3087FF"/>
<path d="M108.568 211.992C114.813 214.512 117.975 221.264 117.975 221.264C117.975 221.264 111.01 223.931 104.765 221.411C98.5193 218.891 94.3057 214.74 95.3573 212.139C96.4071 209.539 102.322 209.472 108.568 211.992Z" fill="#3087FF"/>
<path d="M115.102 204.05C117.687 210.267 115.091 217.257 115.091 217.257C115.091 217.257 108.303 214.167 105.718 207.95C103.133 201.733 103.138 195.82 105.729 194.744C108.319 193.667 112.516 197.833 115.102 204.05Z" fill="#3087FF"/>
<path d="M119.029 225.904C126.943 227.744 131.971 235.202 131.971 235.202C131.971 235.202 124.168 239.678 116.254 237.841C108.339 236.001 102.547 231.839 103.312 228.543C104.078 225.247 111.114 224.065 119.029 225.904Z" fill="#3087FF"/>
<path d="M132.922 217.662C135.195 225.46 131.151 233.494 131.151 233.494C131.151 233.494 123.425 228.887 121.152 221.089C118.879 213.292 119.673 206.204 122.923 205.257C126.172 204.312 130.649 209.867 132.922 217.662Z" fill="#3087FF"/>
<path d="M126.572 242.254C134.696 242.227 141.305 248.331 141.305 248.331C141.305 248.331 134.74 254.48 126.614 254.508C118.49 254.535 111.894 251.814 111.881 248.431C111.87 245.048 118.448 242.281 126.572 242.254Z" fill="#3087FF"/>
<path d="M136.542 260.308C145.205 259.906 152.529 266.113 152.529 266.113C152.529 266.113 145.811 272.97 137.148 273.372C128.485 273.773 121.329 271.175 121.161 267.567C120.993 263.959 127.881 260.709 136.542 260.308Z" fill="#3087FF"/>
<path d="M145.608 278.364C154.183 277.083 162.103 282.511 162.103 282.511C162.103 282.511 156.117 290.017 147.542 291.298C138.966 292.579 131.58 290.721 131.047 287.15C130.512 283.579 137.031 279.645 145.608 278.364Z" fill="#3087FF"/>
<path d="M155.867 298.92C164.537 299.064 171.456 305.721 171.456 305.721C171.456 305.721 164.317 312.14 155.647 311.996C146.977 311.852 139.998 308.806 140.058 305.195C140.12 301.584 147.197 298.774 155.867 298.92Z" fill="#3087FF"/>
<path d="M140.728 231.741C137.524 239.204 140.56 247.67 140.56 247.67C140.56 247.67 148.79 244.035 151.994 236.571C155.198 229.108 155.273 221.976 152.161 220.642C149.05 219.308 143.93 224.277 140.728 231.741Z" fill="#3087FF"/>
<path d="M155.73 249.635C150.82 256.781 152.235 266.274 152.235 266.274C152.235 266.274 161.606 264.182 166.516 257.038C171.425 249.892 172.989 242.443 170.01 240.399C167.032 238.356 160.639 242.491 155.73 249.635Z" fill="#3087FF"/>
<path d="M166.3 266.856C160.69 273.465 161.13 283.053 161.13 283.053C161.13 283.053 170.665 281.927 176.277 275.318C181.888 268.708 184.202 261.458 181.448 259.12C178.693 256.783 171.91 260.246 166.3 266.856Z" fill="#3087FF"/>
<path d="M173.36 289.192C168.913 296.632 170.923 306.017 170.923 306.017C170.923 306.017 180.144 303.34 184.591 295.9C189.039 288.46 190.13 280.928 187.029 279.075C183.929 277.221 177.807 281.751 173.36 289.192Z" fill="#3087FF"/>
<path d="M164.648 320.505C173.103 322.434 178.499 330.372 178.499 330.372C178.499 330.372 170.191 335.184 161.736 333.255C153.281 331.326 147.082 326.908 147.885 323.388C148.688 319.866 156.193 318.576 164.648 320.505Z" fill="#3087FF"/>
<path d="M183.772 314.589C177.884 320.952 177.915 330.551 177.915 330.551C177.915 330.551 187.49 329.832 193.378 323.469C199.266 317.106 201.888 309.96 199.235 307.507C196.582 305.054 189.659 308.226 183.772 314.589Z" fill="#3087FF"/>
<path d="M170.165 343.955C178.424 346.596 183.125 354.964 183.125 354.964C183.125 354.964 174.437 359.052 166.178 356.412C157.919 353.771 152.117 348.842 153.218 345.402C154.318 341.961 161.906 341.313 170.165 343.955Z" fill="#3087FF"/>
<path d="M189.723 339.689C183.315 345.529 182.53 355.095 182.53 355.095C182.53 355.095 192.133 355.193 198.539 349.352C204.945 343.511 208.168 336.615 205.732 333.947C203.299 331.279 196.129 333.85 189.723 339.689Z" fill="#3087FF"/>
<path d="M92.3613 199.812C92.3613 199.812 134.912 222.845 163.295 287.189C191.678 351.532 186.264 412.383 186.264 412.383" stroke="#3087FF" stroke-width="13.4113" stroke-miterlimit="10"/>
<path d="M468.686 272.773C463.173 275.569 460.814 281.992 460.814 281.992C460.814 281.992 467.393 283.883 472.905 281.089C478.419 278.293 481.942 274.165 480.777 271.87C479.613 269.574 474.198 269.977 468.686 272.773Z" fill="#78B0FF"/>
<path d="M455.224 285.953C450.712 287.173 447.978 291.566 447.978 291.566C447.978 291.566 452.556 293.978 457.068 292.756C461.579 291.535 464.823 289.022 464.314 287.142C463.804 285.265 459.735 284.732 455.224 285.953Z" fill="#78B0FF"/>
<path d="M451.377 279.944C449.084 284.013 450.296 289.042 450.296 289.042C450.296 289.042 455.227 287.473 457.52 283.402C459.813 279.332 460.297 275.258 458.601 274.303C456.905 273.349 453.672 275.873 451.377 279.944Z" fill="#78B0FF"/>
<path d="M446.869 294.677C441.266 295.292 437.188 300.016 437.188 300.016C437.188 300.016 442.194 303.742 447.799 303.127C453.402 302.512 457.738 300.122 457.48 297.788C457.225 295.454 452.474 294.062 446.869 294.677Z" fill="#78B0FF"/>
<path d="M437.979 287.853C435.77 293.037 437.893 298.906 437.893 298.906C437.893 298.906 443.596 296.367 445.803 291.183C448.012 285.999 448.049 281.05 445.889 280.13C443.729 279.212 440.188 282.67 437.979 287.853Z" fill="#78B0FF"/>
<path d="M440.326 305.319C434.731 304.631 429.676 308.291 429.676 308.291C429.676 308.291 433.692 313.069 439.286 313.757C444.881 314.444 449.648 313.114 449.937 310.784C450.223 308.454 445.92 306.006 440.326 305.319Z" fill="#78B0FF"/>
<path d="M431.969 316.933C426.035 315.942 420.476 319.616 420.476 319.616C420.476 319.616 424.54 324.893 430.473 325.884C436.407 326.875 441.553 325.674 441.966 323.202C442.378 320.729 437.902 317.922 431.969 316.933Z" fill="#78B0FF"/>
<path d="M424.235 328.625C418.433 327.035 412.529 330.123 412.529 330.123C412.529 330.123 416.034 335.787 421.836 337.375C427.638 338.964 432.88 338.293 433.542 335.877C434.205 333.46 430.037 330.214 424.235 328.625Z" fill="#78B0FF"/>
<path d="M415.472 341.941C409.488 341.326 404.171 345.342 404.171 345.342C404.171 345.342 408.56 350.353 414.545 350.968C420.529 351.583 425.588 350.06 425.845 347.567C426.101 345.074 421.456 342.556 415.472 341.941Z" fill="#78B0FF"/>
<path d="M431.441 296.91C433.033 302.315 430.243 307.897 430.243 307.897C430.243 307.897 424.874 304.715 423.282 299.31C421.69 293.904 422.227 288.985 424.48 288.322C426.733 287.66 429.849 291.505 431.441 296.91Z" fill="#78B0FF"/>
<path d="M419.629 308.002C422.42 313.329 420.664 319.752 420.664 319.752C420.664 319.752 414.38 317.54 411.587 312.214C408.795 306.887 408.332 301.626 410.552 300.464C412.774 299.301 416.837 302.675 419.629 308.002Z" fill="#78B0FF"/>
<path d="M410.928 318.994C414.249 324.009 413.155 330.578 413.155 330.578C413.155 330.578 406.678 329.016 403.359 324.002C400.038 318.987 399.041 313.801 401.132 312.418C403.222 311.034 407.607 313.978 410.928 318.994Z" fill="#78B0FF"/>
<path d="M404.222 333.8C406.672 339.293 404.514 345.592 404.514 345.592C404.514 345.592 398.382 342.988 395.932 337.495C393.482 332.002 393.351 326.723 395.64 325.703C397.929 324.683 401.772 328.309 404.222 333.8Z" fill="#78B0FF"/>
<path d="M407.644 356.09C401.661 356.723 397.288 361.747 397.288 361.747C397.288 361.747 402.616 365.745 408.598 365.114C414.581 364.48 419.218 361.949 418.953 359.457C418.691 356.964 413.626 355.457 407.644 356.09Z" fill="#78B0FF"/>
<path d="M394.957 350.44C398.488 355.308 397.676 361.918 397.676 361.918C397.676 361.918 391.138 360.633 387.607 355.765C384.076 350.896 382.859 345.757 384.889 344.286C386.917 342.816 391.425 345.571 394.957 350.44Z" fill="#78B0FF"/>
<path d="M401.909 371.789C396.001 372.928 392.073 378.306 392.073 378.306C392.073 378.306 397.721 381.837 403.629 380.698C409.537 379.56 413.94 376.642 413.466 374.182C412.989 371.72 407.817 370.651 401.909 371.789Z" fill="#78B0FF"/>
<path d="M388.786 367.239C392.719 371.79 392.472 378.446 392.472 378.446C392.472 378.446 385.849 377.721 381.917 373.172C377.984 368.621 376.334 363.604 378.231 361.966C380.129 360.327 384.854 362.688 388.786 367.239Z" fill="#78B0FF"/>
<path d="M467.393 278.896C467.393 278.896 436.18 291.26 411.322 333.247C386.464 375.234 385.177 417.601 385.177 417.601" stroke="#78B0FF" stroke-width="9.305" stroke-miterlimit="10"/>
<path d="M374.928 383.775C374.928 383.775 342.946 285.683 390.981 205.825C412.77 169.601 493.33 182.322 440.628 248.712C418.848 276.15 381.926 306.059 374.928 383.775Z" fill="#2D76E3"/>
<path d="M420.644 217.049C420.644 217.049 344.491 310.088 384.821 420.44" stroke="#296ED3" stroke-width="17.8847" stroke-miterlimit="10"/>
<path d="M391.054 400.976C391.054 400.976 405.845 353.587 446.948 335.632C465.592 327.488 493.654 354.912 454.473 366.282C438.282 370.981 415.459 372.434 391.054 400.976Z" fill="#2D76E3"/>
<path d="M455.459 348.295C455.459 348.295 399.653 363.591 384.719 418.115" stroke="#296ED3" stroke-width="8.6056" stroke-miterlimit="10"/>
<path d="M348.914 40.3878L348.695 29.094C348.661 27.2746 347.857 25.5629 346.503 24.3476C344.31 22.3768 341.604 18.8677 342.234 18.0465C343.404 16.5246 347.235 22.0885 348.779 20.948C349.241 20.6067 346.607 5.39862 348.169 5.49533C349.387 5.57015 349.862 14.1341 350.406 14.0684C350.941 14.0045 350.807 -0.108706 351.925 0.00260815C353.004 0.110273 353.391 12.9552 354.134 12.4862C355.224 11.8001 354.101 1.19969 355.905 0.686918C357.113 0.34385 356.931 14.1815 357.606 14.4224C358.45 14.7235 358.815 5.47343 359.859 5.84022C361.301 6.3457 359.125 22.0848 359.125 22.0848L356.381 42.0703L348.914 40.3878Z" fill="#FFB49B"/>
<path d="M185.157 90.719L177.546 82.3686C176.321 81.0237 175.726 79.2281 175.872 77.416C176.109 74.478 175.658 70.0693 174.636 69.9069C172.739 69.6058 173.787 76.2773 171.879 76.5109C171.31 76.5802 162.758 63.728 161.692 64.8722C160.86 65.7627 166.406 72.3065 165.966 72.6331C165.533 72.9543 155.921 62.6167 155.187 63.4634C154.477 64.2827 163.034 73.8758 162.172 74.0474C160.909 74.2974 154.432 65.8302 152.768 66.6988C151.655 67.2809 161.307 77.2025 160.982 77.8412C160.577 78.6386 153.948 72.1733 153.442 73.1587C152.743 74.5182 165.15 84.4489 165.15 84.4489L180.891 97.0749L185.157 90.719Z" fill="#FFB49B"/>
<path d="M289.928 61.6776C286.336 46.7925 272.962 35.7194 256.967 35.7194C255.594 35.7194 254.242 35.8052 252.912 35.9694C246.63 36.745 240.297 36.9877 234.023 36.141C231.248 35.7669 228.149 35.3581 224.958 34.9402C209.751 32.9548 197.546 47.5151 202.348 62.0736C202.408 62.2542 202.468 62.4349 202.528 62.6137C205.232 70.5572 206.521 78.8492 206.629 87.2397C206.638 87.9405 206.667 88.6448 206.72 89.3529C207.883 105.201 220.337 118.357 236.102 120.43C238.125 120.696 240.113 120.776 242.057 120.691C251.138 120.289 260.21 121.534 268.6 125.028C272.211 126.532 275.919 127.661 278.901 127.661C297.646 127.661 312.841 112.472 312.841 93.7361C312.841 78.8638 303.251 66.2579 289.928 61.6776Z" fill="#41378C"/>
<path d="M368.938 57.6548C368.938 57.6548 363.673 110.157 355.644 125.449C349.3 137.531 317.511 164.513 317.511 164.513C313.057 169.075 305.641 168.812 301.522 163.944C298.557 160.44 298.132 155.445 300.46 151.489C300.46 151.489 329.449 120.241 333.754 107.042C337.836 94.5291 333.101 54.3993 333.101 54.3993C332.956 42.7369 343.733 33.9905 355.122 36.5288C364.697 38.6639 370.826 48.0344 368.938 57.6548Z" fill="white"/>
<path d="M330.189 352.195C324.279 350.233 323.171 354.368 321.188 361.724C319.206 369.078 318.842 374.642 320.739 375.153C322.506 375.63 325.033 373.033 329.272 366.704C334.362 359.102 334.037 353.474 330.189 352.195Z" fill="#41378C"/>
<path d="M334.703 344.805L328.964 352.752C327.129 355.241 327.2 357.046 328.334 358.164C329.475 359.29 331.299 359.327 332.485 358.25L342.013 350.276L334.703 344.805Z" fill="#FFB49B"/>
<path d="M313.656 208.781C284.774 220.15 292.759 259.256 306.366 267.325C326.599 279.325 366.959 274.287 366.992 277.413C367.131 290.588 331.932 345.899 331.932 345.899C331.645 346.428 331.695 347.096 332.093 347.546C334.147 349.866 335.512 351.404 339.204 353.771C339.638 354.048 340.23 353.813 340.608 353.461C360.326 335.103 400.361 289.756 405.073 270.214C412.938 237.61 319.054 206.655 313.656 208.781Z" fill="#9B14AA"/>
<path d="M172.23 331.48C169.692 325.795 165.889 327.768 159.122 331.266C152.352 334.764 147.998 338.25 148.902 339.994C149.743 341.62 153.364 341.731 160.898 340.589C169.944 339.219 173.882 335.182 172.23 331.48Z" fill="#41378C"/>
<path d="M180.734 329.826L170.992 330.952C167.916 331.277 166.631 332.549 166.57 334.138C166.51 335.74 167.711 337.111 169.309 337.259L181.626 338.91L180.734 329.826Z" fill="#FFB49B"/>
<path d="M315.525 213.376C309.61 207.27 281.535 212.119 281.535 212.119C252.473 223.016 253.935 248.33 257.155 263.814C261.942 286.838 254.572 306.055 252.285 308.188C242.647 317.179 178.055 328.521 178.055 328.521C177.471 328.665 177.011 329.152 176.947 329.751C176.62 332.831 176.405 334.876 177.148 339.198C177.236 339.707 177.809 339.982 178.324 340.024C205.185 342.19 259.273 346.917 276.515 336.57C316.011 312.865 338.008 236.582 315.525 213.376Z" fill="#BE1EC8"/>
<path d="M315.364 224.436C324.427 223.293 331.998 216.948 334.632 208.206C338.583 195.092 343.985 173.696 341.524 161.441C339.227 150.005 330.38 128.787 308.18 128.791C293.374 128.793 263.492 133.185 265.449 155.895C266.669 170.054 269.093 196.687 280.224 214.512C282.309 217.852 285.493 220.384 289.239 221.602C295.027 223.483 304.785 225.77 315.364 224.436Z" fill="white"/>
<path d="M312.591 141.106H298.543C298.132 141.106 297.8 140.774 297.8 140.363V107.721H313.334V140.363C313.336 140.772 313.002 141.106 312.591 141.106Z" fill="#FFA587"/>
<path d="M311.782 127.662C312.308 127.662 312.825 127.611 313.336 127.527V107.721H297.802V110.613C297.8 118.33 304.06 127.662 311.782 127.662Z" fill="#F5876E"/>
<path d="M315.291 122.303C308.94 124.73 297.484 120.314 295.056 113.965C295.056 113.965 289.758 104.357 290.043 100.861C291.353 84.7167 306.762 87.8372 312.381 90.3463C315.585 91.777 317.153 101.782 318.054 105.171C319.799 111.742 318.07 121.242 315.291 122.303Z" fill="#FFB49B"/>
<path d="M288.016 109.879C289.102 112.717 292.255 114.148 295.059 113.075L291.129 102.801C288.325 103.874 286.93 107.043 288.016 109.879Z" fill="#FFA587"/>
<path d="M312.381 90.3477L293 97.7564L294.63 102.017C292.695 102.882 291.748 105.127 292.524 107.154C292.724 107.68 293.024 108.136 293.389 108.517C293.8 108.152 294.165 107.749 294.455 107.304C295.076 106.351 296.014 105.683 297.075 105.269C299.392 104.366 301.226 102.735 302.415 100.696C304.071 97.8586 306.797 95.7072 310.013 95.032C310.692 94.8896 311.368 94.6926 312.036 94.4371C312.58 94.2291 313.155 93.9462 313.656 93.678L312.381 90.3477Z" fill="#FFA587"/>
<path d="M299.394 64.4834C295.235 66.2096 292.235 69.5856 290.859 73.5546C289.416 77.7115 286.289 80.9816 282.556 83.3137C282.512 83.3411 282.468 83.3685 282.424 83.3977C278.302 86.0418 276.106 91.0528 277.007 95.8649C277.126 96.5017 277.29 97.1149 277.493 97.7025C278.165 99.6477 278.543 101.719 278.284 103.761C278.163 104.712 278.263 105.692 278.625 106.637C279.885 109.929 283.755 111.507 287.269 110.164C288.728 109.608 289.886 108.631 290.658 107.447C291.366 106.361 292.436 105.6 293.645 105.13C296.284 104.1 298.375 102.241 299.729 99.9178C301.615 96.6824 304.723 94.2317 308.388 93.4616C309.161 93.2992 309.933 93.0747 310.694 92.7827C318.696 89.7243 322.63 80.6586 319.322 72.6951C316.228 65.2534 306.84 61.3921 299.394 64.4834Z" fill="#41378C"/>
<path d="M175.93 109.991C175.93 109.991 210.521 142.097 226.202 148.798C237.542 153.642 281.59 158.288 281.59 158.288C287.173 159.71 292.916 156.009 293.968 150.31C294.725 146.208 292.803 142.152 289.174 140.197C289.174 140.197 250.061 133.88 239.215 127.662C228.241 121.372 202.778 90.5838 202.778 90.5838C192.904 81.0893 185.143 79.8447 177.291 87.1732C170.693 93.332 168.02 105.08 175.93 109.991Z" fill="white"/>
</g>
<defs>
<clipPath id="clip0_857_113">
<rect width="481" height="421" fill="white"/>
</clipPath>
</defs>
</svg>
